<?xml version="1.0" standalone="no"?>
<!DOCTYPE svg PUBLIC "-//W3C//DTD SVG 20010904//EN"
 "http://www.w3.org/TR/2001/REC-SVG-20010904/DTD/svg10.dtd">
<svg version="1.0" xmlns="http://www.w3.org/2000/svg"
 width="200.000000pt" height="200.000000pt" viewBox="0 0 200.000000 200.000000"
 preserveAspectRatio="xMidYMid meet">

<g transform="translate(0.000000,200.000000) scale(0.100000,-0.100000)"
fill="#000000" stroke="none">
<path d="M0 1000 l0 -1000 1000 0 1000 0 0 1000 0 1000 -1000 0 -1000 0 0
-1000z m351 135 c-107 -33 -145 -146 -69 -210 34 -29 66 -32 108 -10 35 18 50
43 50 84 0 71 -90 96 -134 38 -19 -26 -19 -30 -5 -55 17 -32 50 -39 73 -17 23
23 21 55 -3 55 -11 0 -23 -4 -26 -10 -3 -5 2 -10 12 -10 17 0 17 -1 0 -17 -17
-17 -19 -17 -33 1 -30 42 42 88 80 51 54 -54 -39 -145 -102 -98 -37 27 -46 63
-28 106 18 45 56 70 107 70 112 0 152 -135 65 -221 -30 -31 -42 -36 -93 -39
-46 -3 -65 0 -91 16 -45 29 -72 77 -72 131 0 88 65 150 155 149 l50 0 -44 -14z
m229 -141 c0 -36 -4 -64 -10 -64 -6 0 -10 30 -10 71 0 44 4 68 10 64 6 -3 10
-35 10 -71z m110 61 c0 -10 -10 -15 -30 -15 -20 0 -30 -5 -30 -15 0 -9 9 -15
25 -15 14 0 25 -4 25 -10 0 -5 -11 -10 -25 -10 -18 0 -25 -5 -25 -20 0 -16 7
-20 37 -20 26 0 34 -3 26 -11 -6 -6 -26 -9 -44 -7 -34 3 -34 4 -37 57 -2 29
-1 60 2 67 8 20 76 19 76 -1z m82 -41 l28 -49 0 53 c0 28 5 52 10 52 6 0 10
-30 10 -70 0 -85 -13 -90 -52 -22 l-27 47 -1 -47 c0 -27 -4 -48 -10 -48 -6 0
-10 30 -10 71 0 84 12 87 52 13z m156 50 c33 -9 27 -27 -6 -19 -37 8 -54 -12
-50 -57 2 -28 7 -34 31 -36 19 -2 27 1 27 12 0 9 -7 16 -15 16 -8 0 -15 5 -15
10 0 6 12 10 26 10 23 0 25 -3 22 -32 -3 -30 -6 -33 -39 -36 -40 -3 -56 10
-65 54 -4 21 0 37 16 57 22 28 30 31 68 21z m72 -64 c0 -40 -4 -70 -10 -70 -6
0 -10 30 -10 70 0 40 4 70 10 70 6 0 10 -30 10 -70z"/>
</g>
</svg>
